<?xml version="1.0" encoding="UTF-8"?>
<svg width="14px" height="14px" viewBox="0 0 14 14" version="1.1" xmlns="http://www.w3.org/2000/svg" xmlns:xlink="http://www.w3.org/1999/xlink">
    <title>Icon/top/user1</title>
    <defs>
        <path d="M7,0 C10.8659932,0 14,3.13400675 14,7 C14,8.93299662 13.2164983,10.6829966 11.9497475,11.9497475 L11.7993587,12.0954804 C11.2058893,10.8651684 10.0216769,10.019618 8.66029671,9.86116859 L8.44392993,9.84190433 L7,9.75259571 L5.55607007,9.84190433 C4.1771863,9.92718977 2.95370316,10.7154888 2.30028626,11.9057003 L2.20191302,12.0969245 L2.05025253,11.9497475 C0.783501688,10.6829966 0,8.93299662 0,7 C0,3.13400675 3.13400675,0 7,0 Z" id="path-1"></path>
        <path d="M7,0 C9.72029004,0 12.0781608,1.55170146 13.2367788,3.81827094 C12.077705,5.11348486 9.72002709,6 7,6 C4.27997291,6 1.92229505,5.11348486 0.763557216,3.81850647 C1.92183921,1.55170146 4.27970996,0 7,0 Z" id="path-2"></path>
        <path d="M7,9.75259571 L8.44392993,9.84190433 L8.63415961,9.8582134 L8.82567132,9.88391868 L8.82567132,9.88391868 L8.99321361,9.91420929 L8.81651306,13.7619809 C8.23720518,13.9172309 7.62826847,14 7,14 C6.38528852,14 5.7890835,13.9207644 5.22104118,13.7719494 L5.00678907,9.91421234 L5.18456028,9.8823077 L5.18456028,9.8823077 L5.36512653,9.85829181 L5.55607007,9.84190433 L7,9.75259571 Z" id="path-3"></path>
    </defs>
    <g id="Icon/top/user1" stroke="none" stroke-width="1" fill="none" fill-rule="evenodd">
        <g id="路径">
            <use fill="#262C3D" xlink:href="#path-1"></use>
            <use fill-opacity="0.18" fill="#FFFFFF" xlink:href="#path-1"></use>
        </g>
        <path d="M5.00578962,9.91441527 L5.22104118,13.7719494 L5.20916984,13.7688282 C4.06595967,13.467172 3.03724871,12.8835788 2.20191302,12.0969245 C2.74519027,10.9671092 3.78650031,10.1621392 5.00578962,9.91441527 Z M11.7993587,12.0954804 C11.0333817,12.8172379 10.1049259,13.3681032 9.07472015,13.6873992 L8.81651306,13.7619809 L8.99421309,9.9144122 C10.2135207,10.1621154 11.2549732,10.9669235 11.7993587,12.0954804 Z" id="形状" fill="#FC6E4E"></path>
        <g id="路径">
            <use fill="#262C3D" xlink:href="#path-2"></use>
            <use fill-opacity="0.25" fill="#FFFFFF" xlink:href="#path-2"></use>
        </g>
        <g id="路径">
            <use fill="#262C3D" xlink:href="#path-3"></use>
            <use fill="#FFFFFF" xlink:href="#path-3"></use>
        </g>
        <path d="M5.8,6.66666667 L8.2,6.66666667 L8.43594517,9.91749844 C8.47308533,10.4289963 8.11865006,10.8785115 7.62678956,10.9721287 L7.48697928,10.9887323 C7.33199054,10.9962441 7.16966411,11 7,11 C6.8316287,11 6.67060869,10.9963011 6.51693995,10.9889034 C6.00467836,10.9642744 5.60104488,10.558345 5.56726,10.0587871 L5.56753608,9.9187583 L5.8,6.66666667 Z" id="蒙版" fill="#F3C1A9"></path>
        <path d="M8.25410397,7.42766667 L8.37412292,9.05123996 C8.0332489,9.48096889 7.57520793,9.69583336 7,9.69583336 C6.42660518,9.69583336 5.96963984,9.4823213 5.62910397,9.05529718 L5.74510397,7.42766667 L8.25410397,7.42766667 Z" id="路径" fill="#DCA185"></path>
        <path d="M6.85484379,2.94170367 C8.08463211,2.94170367 8.96296128,4.03705689 9.15755265,5.48984907 L9.19333333,5.475037 C9.65233844,5.28603112 9.82666667,5.75858999 9.82666667,6.10837033 C9.82666667,6.42635246 9.59232535,6.68960124 9.28692269,6.73483671 L9.19333333,6.74170367 C9.18149357,6.74170367 9.16972969,6.74137878 9.15805012,6.74073744 C8.97543901,8.15464862 8.16411067,9.12657138 6.91333333,9.12657138 C5.66225883,9.12657138 4.8545529,8.15418673 4.67251306,6.73892423 L4.63333333,6.74170367 C4.28355299,6.74170367 4,6.45815068 4,6.10837033 C4,5.75858999 4.17432823,5.28603112 4.63333333,5.475037 L4.66903643,5.48984907 C4.84084563,4.03705689 5.62505547,2.94170367 6.85484379,2.94170367 Z" id="路径" fill="#F3C1A9"></path>
        <path d="M9.47101627,3.74950535 C9.75314824,4.42096377 9.17786635,5.8720729 9.07312332,5.94688019 C8.97373647,6.01786211 8.9458069,4.7246522 8.71850233,4.40146486 C8.58614747,4.75315334 8.3242366,5.05940079 7.88371534,5.1447113 C7.13942098,5.28884993 6.6656583,4.85175876 6.21439575,4.49186571 C5.95386338,4.33806625 5.72415592,4.23319068 5.45579734,4.35803029 C4.80406937,4.66121221 4.88143377,5.94688019 4.78059923,5.94688019 C4.67976469,5.94688019 4.01115003,4.35070714 4.25192979,3.74950535 C4.34035954,3.52870556 4.64930701,3.33013201 5.1787722,3.1537847 C5.37754701,2.71979032 5.85892065,2.25693247 6.61760053,2.06774714 C8.09209808,1.70006464 8.15107798,2.9411726 8.51305097,3.1053759 L8.60897917,3.13758501 C9.08562792,3.3091887 9.37144028,3.51252003 9.47101627,3.74950535 Z" id="路径" fill="#1E1047"></path>
    </g>
</svg>