<?xml version="1.0" encoding="UTF-8"?>
<svg width="652px" height="386px" viewBox="0 0 652 386" version="1.1" xmlns="http://www.w3.org/2000/svg" xmlns:xlink="http://www.w3.org/1999/xlink">
    <title>编组 3</title>
    <defs>
        <path d="M636,211.270718 C638.209139,211.270718 640,213.061579 640,215.270718 L640,300.972376 C640,303.181515 638.209139,304.972376 636,304.972376 L503.86653,304.971718 L498.563536,310.276243 L493.25953,304.971718 L462.78453,304.972376 C460.575391,304.972376 458.78453,303.181515 458.78453,300.972376 L458.78453,215.270718 C458.78453,213.061579 460.575391,211.270718 462.78453,211.270718 L636,211.270718 Z" id="path-1"></path>
        <filter x="-10.5%" y="-17.2%" width="121.0%" height="138.4%" filterUnits="objectBoundingBox" id="filter-2">
            <feOffset dx="0" dy="2" in="SourceAlpha" result="shadowOffsetOuter1"></feOffset>
            <feGaussianBlur stdDeviation="6" in="shadowOffsetOuter1" result="shadowBlurOuter1"></feGaussianBlur>
            <feColorMatrix values="0 0 0 0 0   0 0 0 0 0   0 0 0 0 0  0 0 0 0.06 0" type="matrix" in="shadowBlurOuter1"></feColorMatrix>
        </filter>
    </defs>
    <g id="布局" stroke="none" stroke-width="1" fill="none" fill-rule="evenodd">
        <g id="首页" transform="translate(-533.000000, -241.000000)">
            <g id="编组-3" transform="translate(533.000000, 241.000000)">
                <path d="M12,0 L582,0 C588.627417,-1.21743675e-15 594,5.372583 594,12 L594,38 L594,38 L0,38 L0,12 C9.64732338e-16,5.372583 5.372583,1.21743675e-15 12,0 Z" id="矩形" fill="#DCDCDC"></path>
                <path d="M0,38 L594,38 L594,374 C594,380.627417 588.627417,386 582,386 L12,386 C5.372583,386 8.11624501e-16,380.627417 0,374 L0,38 L0,38 Z" id="矩形备份" fill="#F7F7F7"></path>
                <rect id="矩形" fill="#FFFFFF" x="29" y="70" width="127" height="106" rx="16"></rect>
                <rect id="矩形备份-2" fill="#FFFFFF" x="177" y="70" width="223" height="106" rx="16"></rect>
                <rect id="矩形备份-2" fill="#FFFFFF" x="32" y="194" width="368" height="160" rx="16"></rect>
                <path d="M61.0476519,147.441989 L65.7926519,134.374989 L87.6196519,134.374989 L92.3646519,147.441989 L101.489652,147.441989 L81.5606519,95.319989 L71.8516519,95.319989 L51.9226519,147.441989 L61.0476519,147.441989 Z M85.0646519,127.366989 L68.3476519,127.366989 L76.5966519,104.517989 L76.8886519,104.517989 L85.0646519,127.366989 Z M117.184652,148.463989 C120.469652,148.463989 123.316652,147.879989 125.725652,146.784989 C127.842652,145.762989 129.667652,144.375989 131.127652,142.477989 L131.127652,147.441989 L138.865652,147.441989 L138.865652,123.351989 C138.865652,118.752989 137.697652,115.248989 135.361652,112.839989 C132.733652,110.065989 128.572652,108.678989 123.024652,108.678989 C118.206652,108.678989 114.410652,109.481989 111.636652,111.233989 C108.351652,113.131989 106.307652,116.197989 105.504652,120.358989 L113.753652,121.015989 C114.191652,119.044989 115.286652,117.584989 116.892652,116.635989 C118.279652,115.759989 120.104652,115.394989 122.440652,115.394989 C127.842652,115.394989 130.543652,117.803989 130.543652,122.767989 L130.543652,124.227989 L122.294652,124.446989 C116.746652,124.592989 112.439652,125.760989 109.373652,127.950989 C106.015652,130.213989 104.409652,133.498989 104.409652,137.732989 C104.409652,140.871989 105.577652,143.426989 107.913652,145.470989 C110.176652,147.441989 113.242652,148.463989 117.184652,148.463989 Z M119.082652,142.112989 C117.257652,142.112989 115.797652,141.601989 114.629652,140.725989 C113.461652,139.849989 112.950652,138.754989 112.950652,137.440989 C112.950652,132.914989 116.235652,130.578989 122.878652,130.432989 L130.543652,130.213989 L130.543652,132.111989 C130.543652,135.031989 129.375652,137.440989 127.185652,139.338989 C124.995652,141.163989 122.294652,142.112989 119.082652,142.112989 Z" id="Aa" fill="#F4F4F4" fill-rule="nonzero"></path>
                <rect id="矩形" fill="#F4F4F4" x="213.922652" y="91.9337017" width="157.348066" height="10.6077348" rx="4"></rect>
                <rect id="矩形备份-3" fill="#F4F4F4" x="213.922652" y="118.453039" width="157.348066" height="10.6077348" rx="4"></rect>
                <rect id="矩形备份-4" fill="#F4F4F4" x="213.922652" y="144.972376" width="106.961326" height="10.6077348" rx="4"></rect>
                <rect id="矩形备份-2" fill="#FFFFFF" x="418" y="70" width="144" height="106" rx="16"></rect>
                <rect id="矩形" fill="#F4F4F4" x="441.98895" y="93.7016575" width="91.0497238" height="10.6077348" rx="4"></rect>
                <rect id="矩形备份-3" fill="#F4F4F4" x="441.98895" y="120.220994" width="91.0497238" height="10.6077348" rx="4"></rect>
                <rect id="矩形备份-4" fill="#F4F4F4" x="441.98895" y="146.740331" width="61.878453" height="10.6077348" rx="4"></rect>
                <rect id="矩形备份-2" fill="#FFFFFF" x="418" y="194" width="144" height="160" rx="16"></rect>
                <rect id="矩形" fill="#F4F4F4" x="441.98895" y="265.19337" width="91.0497238" height="10.6077348" rx="4"></rect>
                <rect id="矩形备份-3" fill="#F4F4F4" x="441.98895" y="291.712707" width="91.0497238" height="10.6077348" rx="4"></rect>
                <rect id="矩形备份-4" fill="#F4F4F4" x="441.98895" y="318.232044" width="91.0497238" height="10.6077348" rx="4"></rect>
                <rect id="矩形" fill="#000000" x="208" y="88" width="42" height="42" rx="4"></rect>
                <path d="M217.711129,98.7529597 L222.257301,98.7529597 L222.257129,107.84496 L241.95738,107.845304 L241.95738,112.391476 L217.711129,112.391476 L217.711129,98.7529597 Z" id="形状结合" fill="#FFFFFF" transform="translate(229.834254, 105.572218) rotate(-45.000000) translate(-229.834254, -105.572218) "></path>
                <path d="M134.480663,221.878453 C136.689802,221.878453 138.480663,223.669314 138.480663,225.878453 L138.480663,245.281768 C138.480663,247.490907 136.689802,249.281768 134.480663,249.281768 L125.220547,249.281453 L119.917127,254.585635 L114.612547,249.281453 L107.121547,249.281768 C104.912408,249.281768 103.121547,247.490907 103.121547,245.281768 L103.121547,225.878453 C103.121547,223.669314 104.912408,221.878453 107.121547,221.878453 L134.480663,221.878453 Z" id="Combined-Shape" fill="#000000"></path>
                <circle id="椭圆形" fill="#D8D8D8" cx="456.132597" cy="235.138122" r="14.1436464"></circle>
                <path d="M230.019505,222.172553 C237.728208,220.71415 245.106328,224.603555 252.839536,233.178448 L253.208055,233.590315 C258.728978,239.809007 263.111177,246.325267 271.893348,260.745749 L276.480982,268.293012 C282.744438,278.534038 286.542619,284.257933 290.729961,289.482012 L290.967415,289.777208 C296.891813,297.116235 302.289198,301.407477 307.543614,302.627252 C313.846706,304.09047 320.216972,302.551106 327.056864,298.30274 C332.314192,295.03733 337.344723,290.622179 344.246531,283.58175 L346.088214,281.685097 C347.893306,279.811032 351.558382,275.992609 352.703436,274.821054 L353.616785,273.891254 C355.997499,271.480687 357.952751,269.609435 359.808623,267.9923 C364.956675,263.506488 369.186646,261.163279 373.187379,261.046064 L373.502762,261.041436 L373.502762,264.041436 C370.323584,264.041436 366.562224,266.0866 361.779471,270.254104 C359.987071,271.815932 358.079977,273.641285 355.745118,276.005565 L354.246674,277.537736 C352.377921,279.467696 348.31298,283.705616 347.39739,284.648218 L346.353394,285.718051 C339.312389,292.898353 334.141458,297.433967 328.639737,300.851173 C321.177964,305.485799 314.030629,307.212941 306.865225,305.549544 C300.940656,304.174197 295.184428,299.667134 289.026681,292.145768 L288.633082,291.661588 C284.329212,286.330038 280.519752,280.626696 274.288893,270.458154 L268.621425,261.142494 C260.525201,247.885234 256.296824,241.630263 251.184274,235.830344 L250.964609,235.582035 C243.72426,227.426605 237.141702,223.878328 230.57718,225.120264 C224.686769,226.234666 219.883593,231.67142 215.657826,241.455613 L215.188241,242.564706 C212.319382,249.457593 210.245017,256.515658 206.695838,270.752247 L204.103015,281.255389 C200.234553,296.800479 198.019416,304.252916 194.768657,311.769742 C189.953026,322.905068 184.193278,329.229519 176.589485,330.324465 C169.246561,331.381846 162.917385,330.163085 156.947874,326.899799 C152.607373,324.527025 149.214251,321.735841 143.43528,316.164216 L140.172252,313.000128 C135.061784,308.077842 132.130311,305.604992 128.428925,303.320751 C123.286128,300.14697 117.969895,298.516575 111.845304,298.516575 C99.7472755,298.516575 88.594228,303.980907 77.6504504,313.580981 L77.121073,314.048722 C74.0651712,316.7682 71.884214,318.940634 68.3047983,322.756481 L64.7225088,326.595472 C61.8845459,329.605462 61.0257897,330.280759 59.8595518,330.335931 L59.6906077,330.339779 L59.6906077,327.339779 C59.5762611,327.339779 59.5099914,327.35588 59.4800237,327.368656 L59.5659492,327.323639 C59.5840191,327.313057 59.6038828,327.300928 59.6254195,327.28724 L59.694928,327.241489 C59.9503483,327.06803 60.2919547,326.781715 60.7192257,326.379796 L61.0212364,326.091102 C61.4680064,325.657304 61.9734794,325.137401 62.7074751,324.358177 L65.7525618,321.092781 C69.6111597,316.968808 71.88327,314.693995 75.1267035,311.807631 C86.7384156,301.474253 98.6890445,295.516575 111.845304,295.516575 C118.549823,295.516575 124.405265,297.312336 130.004451,300.767768 L130.602295,301.142214 C134.152775,303.399643 137.089497,305.884706 141.832028,310.434277 L145.499746,313.987362 C151.102099,319.389353 154.343379,322.057034 158.386873,324.267446 C163.797342,327.225127 169.473742,328.318187 176.161896,327.355093 C182.37509,326.460393 187.400709,321.040842 191.792358,311.088873 L192.015118,310.578934 C195.133829,303.367446 197.30277,296.115458 201.028031,281.187904 L203.794245,269.988985 C207.480958,255.201759 209.597937,248.068721 212.677173,240.795915 C217.307845,229.858795 222.793634,223.53961 230.019505,222.172553 Z" id="路径-2" fill="#F1F1F1" fill-rule="nonzero"></path>
                <path d="M161.346,283.595 L161.989942,284.077421 L163.401964,285.124035 C170.591488,290.411357 176.190527,293.861524 182.58839,296.672266 C191.432266,300.557603 200.847967,302.588398 211.617233,302.588398 C222.195688,302.588398 231.191585,299.701382 239.527974,294.137498 C245.945736,289.854147 251.243856,284.728207 259.076036,275.823217 L265.086172,268.942581 L266.043305,267.8629 C272.175789,260.982095 276.613505,256.744774 281.605052,253.3757 C288.199778,248.924551 295.074397,246.712661 302.859463,246.898216 C311.781153,247.110862 319.581385,250.30129 326.823765,256.179712 C332.360088,260.673379 337.109751,266.181875 343.313017,274.729092 L349.726728,283.69031 C350.43333,284.670283 351.078082,285.559623 351.573685,286.234669 L352.107731,286.955973 C360.238102,297.80049 366.279185,302.588398 373.502762,302.588398 C374.33119,302.588398 375.002762,303.259971 375.002762,304.088398 C375.002762,304.916825 374.33119,305.588398 373.502762,305.588398 C365.282982,305.588398 358.758199,300.608737 350.466194,289.75816 L349.4999,288.477095 C349.052414,287.87363 348.415836,286.998877 347.692965,285.998457 L341.332,277.11 L340.89047,276.498663 L339.967641,275.235152 C334.49637,267.793882 330.176475,262.840157 325.318867,258.824939 L324.933152,258.509 C318.180643,253.028192 311.004957,250.093213 302.78798,249.897364 C295.654968,249.727351 289.382981,251.745345 283.283395,255.862297 C278.418973,259.145568 274.029388,263.373957 267.795526,270.407345 L261.836191,277.226283 L260.81608,278.386057 C253.099878,287.11981 247.739196,292.263961 241.193378,296.632779 C232.377247,302.516853 222.806362,305.588398 211.617233,305.588398 C200.426826,305.588398 190.600975,303.469141 181.381727,299.418894 C174.324447,296.318454 168.248428,292.494682 160.201728,286.486234 L151.867053,280.180734 C150.774434,279.360605 149.806589,278.639125 149.168065,278.172973 L148.930704,278.000502 C138.31611,270.331031 130.397865,266.914365 120.752579,266.914365 C107.675795,266.914365 96.272056,271.32995 83.6112659,279.747654 L82.943732,280.194385 C79.9842336,282.187757 71.1775385,288.596027 69.8595637,289.49528 C65.3679805,292.559879 62.3777491,293.986188 59.6906077,293.986188 C58.8621806,293.986188 58.1906077,293.314615 58.1906077,292.486188 C58.1906077,291.657761 58.8621806,290.986188 59.6906077,290.986188 C61.5132765,290.986188 64.0013896,289.826553 67.7972915,287.269026 L68.4472356,286.823574 C70.3956353,285.454626 78.4179946,279.625651 81.2677913,277.706168 C94.6470259,268.694572 106.748363,263.914365 120.752579,263.914365 C130.779364,263.914365 139.002403,267.30803 149.510506,274.72781 L150.946252,275.756767 C152.248829,276.708175 154.855482,278.671001 157.134002,280.394939 L161.346,283.595 Z" id="路径" fill="#000000" fill-rule="nonzero"></path>
                <path d="M120.243094,260.005525 C123.416443,260.005525 125.98895,262.578032 125.98895,265.751381 C125.98895,268.92473 123.416443,271.497238 120.243094,271.497238 C117.069745,271.497238 114.497238,268.92473 114.497238,265.751381 C114.497238,262.578032 117.069745,260.005525 120.243094,260.005525 Z" id="路径" fill="#000000" fill-rule="nonzero"></path>
                <path d="M120.243094,263.005525 C118.726599,263.005525 117.497238,264.234887 117.497238,265.751381 C117.497238,267.267876 118.726599,268.497238 120.243094,268.497238 C121.759589,268.497238 122.98895,267.267876 122.98895,265.751381 C122.98895,264.234887 121.759589,263.005525 120.243094,263.005525 Z" id="路径" fill="#FFFFFF" fill-rule="nonzero"></path>
                <circle id="椭圆形" fill="#FF5A52" cx="21" cy="19" r="6"></circle>
                <circle id="椭圆形备份" fill="#FFCB5E" cx="40" cy="19" r="6"></circle>
                <circle id="椭圆形备份-2" fill="#53C22B" cx="59" cy="19" r="6"></circle>
                <g id="Combined-Shape">
                    <use fill="black" fill-opacity="1" filter="url(#filter-2)" xlink:href="#path-1"></use>
                    <use fill="#FFFFFF" fill-rule="evenodd" xlink:href="#path-1"></use>
                </g>
                <rect id="input" fill="#000000" x="556" y="257.276243" width="60" height="26" rx="3"></rect>
                <rect id="矩形" fill="#F2F2F2" x="483" y="257" width="60" height="26" rx="3"></rect>
                <rect id="矩形备份-5" fill="#F4F4F4" x="480" y="230.718232" width="107" height="10" rx="4"></rect>
            </g>
        </g>
    </g>
</svg>