<?xml version="1.0" encoding="UTF-8"?>
<svg width="52px" height="44px" viewBox="0 0 52 44" version="1.1" xmlns="http://www.w3.org/2000/svg" xmlns:xlink="http://www.w3.org/1999/xlink">
    <!-- Generator: Sketch 55.2 (78181) - https://sketchapp.com -->
    <title>logo</title>
    <desc>Created with Sketch.</desc>
    <defs>
        <polygon id="path-1" points="31.2762812 12 25 21.8320173 31.2762812 32 38 32 31.8350854 21.8320173 38 12"></polygon>
        <polygon id="path-2" points="41.2196277 12 35 21.8320173 41.2196277 32 46 32 39.8910592 21.8320173 46 12"></polygon>
        <polygon id="path-3" points="48.9238269 12 43 21.8320173 48.9238269 32 52 32 46.1729139 21.8320173 52 12"></polygon>
    </defs>
    <g id="登录+错误提示页" stroke="none" stroke-width="1" fill="none" fill-rule="evenodd">
        <g id="登录样式四" transform="translate(-506.000000, -305.000000)">
            <g id="编组" transform="translate(-30.000000, -19.000000)">
                <g id="logo" transform="translate(536.000000, 324.000000)">
                    <path d="M22.1633587,-0.00013968254 C30.0327238,-0.00013968254 37.0612,4.26611429 40.8720889,10.532273 L40.0402794,10.532273 L35.0413905,10.532273 C31.339454,6.98852698 27.4098349,4.73160635 22.1633587,4.73160635 C12.6307238,4.73160635 4.76135873,12.5517333 4.76135873,21.896146 C4.76135873,31.3694159 12.6307238,39.1794159 22.1633587,39.1794159 C27.1720254,39.1794159 31.5772635,36.9326222 34.7941524,33.6165587 L40.7533587,33.6165587 C36.9424698,39.7734159 30.0327238,43.9108127 22.1633587,43.9108127 C9.88875556,43.9108127 -6.98412698e-05,34.0911302 -6.98412698e-05,21.896146 C-6.98412698e-05,9.82932063 9.88875556,-0.00013968254 22.1633587,-0.00013968254" id="Fill-1" fill="#F6F3F3"></path>
                    <path d="M21.9619714,8.38088254 C24.3477492,8.38088254 26.8522571,9.0936127 28.8807968,10.2718349 L28.2773683,11.102946 L24.2286698,17.2601524 L17.2005429,17.2601524 L17.2005429,26.1394222 L24.2286698,26.1394222 L28.0395587,32.2865016 C28.2773683,32.7617714 28.5151778,33.1179619 28.6436857,33.3561206 C26.7331778,34.5339937 24.3477492,35.2467238 21.9619714,35.2467238 C14.4585746,35.2467238 8.3809873,29.2078984 8.3809873,21.7540889 C8.3809873,14.4193587 14.4585746,8.38088254 21.9619714,8.38088254" id="Fill-1" fill="#F6F3F3"></path>
                    <g id="Fill-1">
                        <use fill="#07569E" xlink:href="#path-1"></use>
                        <use fill="#F6F3F3" xlink:href="#path-1"></use>
                    </g>
                    <g id="Fill-1">
                        <use fill="#07569E" xlink:href="#path-2"></use>
                        <use fill="#F6F3F3" xlink:href="#path-2"></use>
                    </g>
                    <g id="Fill-1">
                        <use fill="#07569E" xlink:href="#path-3"></use>
                        <use fill="#F6F3F3" xlink:href="#path-3"></use>
                    </g>
                </g>
            </g>
        </g>
    </g>
</svg>