<?xml version="1.0" encoding="UTF-8"?>
<svg width="12px" height="12px" viewBox="0 0 12 12" version="1.1" xmlns="http://www.w3.org/2000/svg" xmlns:xlink="http://www.w3.org/1999/xlink">
    <title>编组 2</title>
    <g id="数据库管理" stroke="none" stroke-width="1" fill="none" fill-rule="evenodd">
        <g id="产品详情备份" transform="translate(-258.000000, -109.000000)">
            <g id="文档数备份" transform="translate(252.000000, 103.000000)">
                <g id="编组-2" transform="translate(6.000000, 6.000000)">
                    <rect id="矩形" x="0" y="0" width="12" height="12"></rect>
                    <path d="M6.20415525,0.2848889 L11.0574839,2.22459179 C11.1856946,2.27583305 11.2480907,2.42130761 11.1968495,2.54951832 C11.1714389,2.613098 11.1210636,2.6634733 11.0574839,2.68888384 L6.20415525,4.62858672 C6.06120353,4.68571944 5.90176053,4.68571944 5.7588088,4.62858672 L0.905480118,2.68888384 C0.777269409,2.63764257 0.714873343,2.49216801 0.766114604,2.3639573 C0.791525139,2.30037762 0.841900443,2.25000232 0.905480118,2.22459179 L5.7588088,0.2848889 C5.90176053,0.22775618 6.06120353,0.22775618 6.20415525,0.2848889 Z" id="矩形" fill="#FFFFFF"></path>
                    <path d="M0.824627778,3.41233818 C0.874018692,3.41637022 0.922982477,3.42785754 0.969042071,3.446219 L5.42543273,5.22274015 C5.57947774,5.28414954 5.68101843,5.41378697 5.68101843,5.54904751 L5.68101843,11.3972823 C5.68101843,11.5781743 5.50193233,11.7101966 5.28101843,11.6921622 C5.23162752,11.6881302 5.18266373,11.6766429 5.13660414,11.6582814 L0.680213484,9.88176027 C0.52616847,9.82035089 0.424627778,9.69071345 0.424627778,9.55545292 L0.424627778,3.70721816 C0.424627778,3.52632609 0.603713878,3.39430382 0.824627778,3.41233818 Z M1.46488752,5.32087136 L1.46488752,5.66120517 C1.46488752,5.78651261 1.53664859,5.91676091 1.62517035,5.95212288 L4.02941286,6.9401672 C4.11793463,6.97552916 4.1896957,6.90261395 4.1896957,6.7773065 L4.1896957,6.4369727 C4.1896957,6.31166525 4.11793463,6.18141696 4.02941286,6.14605499 L1.62517035,5.15801067 C1.53664859,5.1226487 1.46488752,5.19556392 1.46488752,5.32087136 Z" id="形状" fill="#FFFFFF"></path>
                    <path d="M11.2310184,3.41233818 C11.1816275,3.41637022 11.1326637,3.42785754 11.0866041,3.446219 L6.63021348,5.22274015 C6.47616847,5.28414954 6.37462778,5.41378697 6.37462778,5.54904751 L6.37462778,11.3972823 C6.37462778,11.5781743 6.55371388,11.7101966 6.77462778,11.6921622 C6.82401869,11.6881302 6.87298248,11.6766429 6.91904207,11.6582814 L11.3754327,9.88176027 C11.5294777,9.82035089 11.6310184,9.69071345 11.6310184,9.55545292 L11.6310184,3.70721816 C11.6310184,3.52632609 11.4519323,3.39430382 11.2310184,3.41233818 Z" id="形状" fill="#FFFFFF" opacity="0.5"></path>
                </g>
            </g>
        </g>
    </g>
</svg>