<?xml version="1.0" encoding="UTF-8"?>
<svg width="54px" height="54px" viewBox="0 0 54 54" version="1.1" xmlns="http://www.w3.org/2000/svg" xmlns:xlink="http://www.w3.org/1999/xlink">
    <title>chrome (1)</title>
    <g id="页面-1" stroke="none" stroke-width="1" fill="none" fill-rule="evenodd">
        <g id="异常页-浏览器版本不兼容" transform="translate(-780.000000, -509.000000)" fill-rule="nonzero">
            <g id="chrome-(1)" transform="translate(780.000000, 509.000000)">
                <path d="M27.1467545,14.9674548 L51.1750358,14.9674548 C46.7505316,6.09531279 37.5877722,0 27,0 C18.4884789,0 10.8983303,3.93966 5.94952218,10.0936505 L15.0861356,25.9186795 C15.6003186,19.7542065 20.8517327,14.9674548 27.1467545,14.9674548 Z" id="路径" fill="#E55C48"></path>
                <path d="M27.0733773,16.9483999 C21.5624921,16.9483999 17.0950941,21.4157978 17.0950941,26.926683 C17.0950941,32.4375682 21.5624921,36.9049661 27.0733773,36.9049661 C30.248239,36.9049661 33.0745888,35.4204321 34.9020923,33.1096509 L34.9881208,32.9606071 L35.0095074,32.9729571 C36.2898141,31.2950397 37.0516604,29.2002334 37.0516604,26.926683 C37.0516604,21.8195534 33.2139936,17.6113857 28.2656071,17.0217771 L27.8804669,16.9837029 C27.6139472,16.9623765 27.3453792,16.9483999 27.0733773,16.9483999 L27.0733773,16.9483999 Z" id="路径" fill="#5292FA"></path>
                <path d="M52.0953239,17.0217771 L33.8945104,17.0217771 C37.0397923,19.1945392 39.1059827,22.8230989 39.1059827,26.926683 C39.1059827,29.670619 38.0054443,31.8424774 36.6287471,34.2277805 L25.2467775,53.9418645 C25.8265663,53.9790351 26.4108131,54.0000602 27,54.0000602 C41.9116688,54.0000602 54,41.9117291 54,27.0000602 C54,23.4753011 53.3237605,20.1086825 52.0953239,17.0217771 Z" id="路径" fill="#FFD13D"></path>
                <path d="M27.0733773,38.9592884 C22.0379984,38.9592884 18.342387,35.6576732 15.9261787,31.4498067 L15.9120214,31.4579999 L4.61734538,11.8951285 C1.70237652,16.2061328 0,21.4042309 0,27.0000602 C0,40.5561776 9.9908139,51.7777173 23.0106989,53.7061295 L32.1845432,37.8166394 C30.6321141,38.548183 28.9001578,38.9592884 27.0733773,38.9592884 Z" id="路径" fill="#04AC69"></path>
            </g>
        </g>
    </g>
</svg>