<?xml version="1.0" encoding="UTF-8"?>
<svg width="54px" height="54px" viewBox="0 0 54 54" version="1.1" xmlns="http://www.w3.org/2000/svg" xmlns:xlink="http://www.w3.org/1999/xlink">
    <title>edge</title>
    <g id="页面-1" stroke="none" stroke-width="1" fill="none" fill-rule="evenodd">
        <g id="异常页-浏览器版本不兼容" transform="translate(-900.000000, -509.000000)" fill-rule="nonzero">
            <g id="edge" transform="translate(900.000000, 509.000000)">
                <path d="M51.6059005,13.7693052 C47.1349599,5.02740761 37.4840452,0 26.9901322,0 C14.0445535,0 3.20320323,9.1098629 0.58489841,21.3006187 C3.41667566,16.2394628 9.97550744,12.6850051 16.863261,12.6850051 C25.4969142,12.6850051 30.051719,18.0117927 30.1780599,18.1478746 C32.5741791,20.7388729 33.7722387,23.6336059 33.7722387,27.1945955 C33.7722387,28.3267965 33.1939026,30.0055021 32.1265404,31.3935369 C31.9555447,31.6112678 31.4305767,31.9204458 31.4305767,32.5910571 C31.4305767,33.1419164 31.7889055,33.6710026 32.4260553,34.1151737 C35.4604136,36.223898 41.1795145,35.9452024 41.1947625,35.9452024 C43.4418694,35.9390446 45.6462259,35.3307793 47.5782419,34.183759 C51.5458708,31.867794 53.9890252,27.6241288 53.9987523,23.0315798 C54.0532095,18.3035522 52.3105774,15.160606 51.6059005,13.7693052 Z" id="路径" fill="#2EC0E2"></path>
                <path d="M22.2915602,50.9131164 C20.2716103,49.656483 18.5404572,47.9869544 17.2117875,46.0141701 C13.6241435,40.8517693 13.4825547,35.6066307 15.0226058,31.2084656 C16.1177765,27.7546737 18.2926459,24.7432042 21.2274654,22.6168023 C27.6534215,17.6960829 31.5569176,22.0017124 32.0165368,22.5079368 C31.86516,22.1279272 31.6871889,21.7590489 31.4839448,21.4040409 C30.4775748,19.6698139 28.8699966,17.440249 25.3237402,15.5786494 C21.6511429,13.6528192 17.6354649,13.5548402 16.8676176,13.5548402 C12.6515369,13.5548402 8.38317731,14.9700914 5.15604039,17.440249 C3.00388967,19.0841177 0.508658253,21.851478 0.0544847475,25.5833865 C-0.063142923,26.9235205 -0.245030154,32.4201383 2.55951847,38.4589062 C7.40664073,48.7958184 18.2343012,54.9682497 29.6029912,53.875346 C25.4511701,53.1546566 22.4309708,50.9751698 22.2915602,50.9131164 Z" id="路径" fill="#138BDF"></path>
                <path d="M49.5986061,40.2083743 C49.337321,40.0428741 49.0064565,40.03327 48.7360032,40.1833353 C48.0161159,40.5595875 47.2737289,40.8911662 46.513058,41.1761884 C44.0905467,42.0819402 41.5244929,42.5436588 38.9380539,42.5391841 C28.9538608,42.5391841 20.2570372,35.6741273 20.2570372,26.8625558 C20.2690758,25.8504877 20.511945,24.8545021 20.9671598,23.9504044 C19.2292019,25.4825377 17.7968511,27.3294235 16.7456334,29.3936781 C15.1206289,32.5910571 13.1514545,38.9879924 18.1974638,45.904216 C18.9064972,46.8742073 20.7024975,49.1701802 24.2966763,51.0938331 C26.8637913,52.4709814 29.6334873,53.2286851 32.1058467,53.2286851 C35.9331026,53.2286851 44.6778485,49.5882236 49.8589118,41.3765009 C49.9800449,41.1872821 50.020683,40.9575903 49.9718213,40.7383223 C49.9229595,40.5190543 49.7886328,40.3283166 49.5986061,40.2083743 L49.5986061,40.2083743 Z" id="路径" fill="#0C519A"></path>
            </g>
        </g>
    </g>
</svg>