<?xml version="1.0" encoding="UTF-8"?>
<svg width="54px" height="54px" viewBox="0 0 54 54" version="1.1" xmlns="http://www.w3.org/2000/svg" xmlns:xlink="http://www.w3.org/1999/xlink">
    <title>Firefox</title>
    <defs>
        <linearGradient x1="46.2223458%" y1="24.3501382%" x2="35.764746%" y2="63.7519316%" id="linearGradient-1">
            <stop stop-color="#F3E2FE" offset="0.0480598503%"></stop>
            <stop stop-color="#F3E2FE" stop-opacity="0.575294335" offset="100%"></stop>
        </linearGradient>
        <filter x="-22.9%" y="-27.3%" width="145.9%" height="154.5%" filterUnits="objectBoundingBox" id="filter-2">
            <feGaussianBlur stdDeviation="50" in="SourceGraphic"></feGaussianBlur>
        </filter>
        <linearGradient x1="100%" y1="27.2166952%" x2="19.5658604%" y2="77.821552%" id="linearGradient-3">
            <stop stop-color="#FFE849" offset="0%"></stop>
            <stop stop-color="#FE3C42" offset="100%"></stop>
        </linearGradient>
    </defs>
    <g id="页面-1" stroke="none" stroke-width="1" fill="none" fill-rule="evenodd">
        <g id="异常页-浏览器版本不兼容" transform="translate(-1020.000000, -509.000000)">
            <g id="编组-2" transform="translate(-163.161954, -229.000000)" fill="url(#linearGradient-1)">
                <path d="M1687.04308,1327.26461 C1747.10761,1291.89754 1357.65594,780.797435 1357.65594,780.797435 C1357.65594,780.797435 1012.03702,814.075314 1041.42694,921.661091 C1058.47167,984.055596 1200.58616,930.793522 1268.3137,983.52244 C1336.04123,1036.25136 1614.80491,1369.79973 1687.04308,1327.26461 Z" id="椭圆形备份" filter="url(#filter-2)" transform="translate(1366.496460, 1055.899336) rotate(120.000000) translate(-1366.496460, -1055.899336) "></path>
            </g>
            <g id="Firefox" transform="translate(1020.000000, 510.000000)" fill="url(#linearGradient-3)" fill-rule="nonzero">
                <path d="M37.08,0.0674999926 C36.72,-0.11249999 36.18,0.0674999926 36,0.607499993 C35.82,0.96750001 36,1.50750001 36.36,1.68749999 C40.86,4.74749996 45,13.9275 45,20.7675 C45,21.6675 45,22.9275 44.64,24.0075 C43.74,20.2275 41.76,16.6275 39.24,14.6475 C38.88,14.4675 38.34,14.4675 37.98,14.6475 C37.8,15.0075 37.8,15.5475 37.98,15.9075 C39.42,17.8875 39.6,20.5875 39.6,23.4675 C39.6,30.6675 34.56,36.0675 27.9,36.0675 C26.1,36.0675 24.84,36.0675 23.58,35.7075 C25.02,35.3475 26.46,34.6275 27.9,34.0875 C29.88,33.1875 31.68,32.4675 33.3,32.4675 C33.66,32.4675 33.84,32.2875 34.02,32.1075 C34.2,31.9275 34.2,31.5675 34.2,31.3875 C34.2,31.2075 33.3,27.0675 29.7,27.0675 C28.26,27.0675 27.54,27.4275 26.82,27.9675 C26.1,28.5075 25.2,28.8675 22.5,28.8675 C20.16,28.8675 16.2,28.3275 16.2,25.2675 C16.2,23.6475 17.82,22.3875 18.18,22.3875 C18.36,22.5675 18.54,22.5675 18.9,22.5675 C19.26,22.5675 19.44,22.3875 19.62,22.3875 C20.34,21.6675 20.34,20.4075 20.16,19.5075 L26.64,16.2675 C26.82,15.9075 27,15.5475 27,15.1875 C27,14.8275 26.46,14.4675 26.1,14.4675 L23.4,14.4675 C20.7,14.4675 18.9,13.9275 18.54,12.8475 C17.82,11.2275 19.98,8.34749998 21.42,6.90749996 C21.6,6.72749998 21.6,6.36749996 21.6,6.00749999 C21.6,5.64750003 21.06,5.46749999 20.7,5.46749999 C17.1,5.46749999 15.12,7.80749998 14.04,9.24749999 C13.68,9.24749999 12.96,9.06750001 11.88,9.06749996 C11.34,9.06749996 9.72,9.06749996 8.81999998,9.24749999 C8.27999998,9.06750001 7.37999996,7.98750001 6.84000002,7.08749999 C5.94,5.64749998 5.4,3.66749996 5.4,2.76749999 C5.4,2.40749998 5.22000002,2.04750001 4.86,1.86749998 C4.5,1.68749994 4.14000002,1.86749998 3.95999998,2.04749996 C1.08,4.92749999 1.79999998,9.42749998 2.52000002,11.7675 C0.360000018,16.0875 0,21.8475 0,25.0875 C0,39.8475 12.42,52.2675 27,52.2675 C42.12,52.2675 54,40.7475 54,26.1675 L54,24.3675 C54,11.2275 45.18,2.58749996 37.08,0.0674999926 Z" id="路径"></path>
            </g>
        </g>
    </g>
</svg>