<?xml version="1.0" encoding="utf-8"?>
<!-- Generator: Adobe Illustrator 23.0.1, SVG Export Plug-In . SVG Version: 6.00 Build 0)  -->
<svg version="1.1" id="图层_1" xmlns="http://www.w3.org/2000/svg" xmlns:xlink="http://www.w3.org/1999/xlink" x="0px" y="0px"
	 viewBox="0 0 69 24" style="enable-background:new 0 0 69 24;" xml:space="preserve">
<style type="text/css">
	.st0{fill:url(#cloud_1_);}
	.st1{fill:#3261FF;}
</style>
<title>未命名2</title>
<linearGradient id="cloud_1_" gradientUnits="userSpaceOnUse" x1="27.7276" y1="19.0008" x2="27.0887" y2="18.5434" gradientTransform="matrix(28.6199 0 0 -20.7184 -773.3572 398.6625)">
	<stop  offset="0" style="stop-color:#40D5FF"/>
	<stop  offset="1" style="stop-color:#3261FF"/>
</linearGradient>
<path id="cloud" class="st0" d="M7.6,6.6c0,0-0.3,0.7-0.4,1c-0.2,0.4-0.3,1-0.3,1c-1.7,1-3.6,2.8-3.6,5.8c0,2.3,2.4,3.9,4.6,4.6l0,0
	v1.8c-2.6,0-8-2.2-7.8-6.5C0.1,11.2,3.3,8.1,7.6,6.6z M4.8,6.6C6.6,1.9,11.1-0.2,15,0c3.9,0.3,5.9,4.1,6,4.4l0,0l0,0
	c0.7-0.2,1.4-0.3,2.1-0.3c3,0,5.5,3,5.5,3l0,0h-2.2c0,0-1.2-1.7-4.1-1.8c-3-0.2-6,1.8-6,1.8s1.5-1.7,4.1-2.5C20,4,18.3,1.6,15,1.5
	c-4.7,0-7,3.9-7,3.9S7.2,5.7,6.6,5.9C6,6.1,4.8,6.6,4.8,6.6z"/>
<path id="text1" class="st1" d="M37.8,9v0.3c0,1.5-1.2,2.6-2.6,2.6H27v9.4c0,1.5-1.2,2.6-2.6,2.6h-0.3V11.6c0-1.5,1.2-2.6,2.6-2.6
	H37.8z M37.7,12.4v8.9c0,1.5-1.2,2.6-2.6,2.6h-7.6v-0.3c0-1.5,1.2-2.6,2.6-2.6h4.6v-5.9c0-1.5,1.2-2.6,2.6-2.6H37.7z M53.2,9v0.3
	c0,1.5-1.2,2.6-2.6,2.6h-7.3v9.4c0,1.5-1.2,2.6-2.6,2.6h-0.3V11.6c0-1.5,1.2-2.6,2.6-2.6H53.2z M65.7,9c1.5,0,2.6,1.2,2.6,2.6v12.3
	H68c-1.5,0-2.6-1.2-2.6-2.6v-9.4h-7.8v9.4c0,1.5-1.2,2.6-2.6,2.6h-0.3V11.6c0-1.5,1.2-2.6,2.6-2.6H65.7z M53.2,21v0.3
	c0,1.5-1.2,2.6-2.6,2.6h-6.8v-0.3c0-1.5,1.2-2.6,2.6-2.6H53.2z M12.3,9v5.1L18,9.4C18.3,9.1,18.7,9,19.1,9h3.3l-10.1,8.3v4
	c0,1.5-1.2,2.6-2.6,2.6H9.3V11.6c0-1.5,1.2-2.6,2.6-2.6H12.3z M15.1,16.5l7.3,7.5h-2.8c-0.5,0-0.9-0.2-1.3-0.5L13,18.2L15.1,16.5z"
	/>
<path id="text2" class="st1" d="M64.4,16.2v0.2c0,1.5-1.2,2.6-2.6,2.6h-3.1v-0.2c0-1.5,1.2-2.6,2.6-2.6H64.4z"/>
</svg>
