<?xml version="1.0" encoding="UTF-8"?>
<svg width="54px" height="54px" viewBox="0 0 54 54" version="1.1" xmlns="http://www.w3.org/2000/svg" xmlns:xlink="http://www.w3.org/1999/xlink">
    <title>safari</title>
    <defs>
        <path d="M31.7162903,0 L19.1514919,19.1514919 L0,31.7162903 L12.5647984,12.5647984 L31.7162903,0 Z M12.9215008,15.2503799 L6.05975806,25.6565323 L16.5557961,18.7867328 L12.9215008,15.2503799 Z" id="path-1"></path>
    </defs>
    <g id="页面-1" stroke="none" stroke-width="1" fill="none" fill-rule="evenodd">
        <g id="异常页-浏览器版本不兼容" transform="translate(-1142.000000, -509.000000)">
            <g id="safari" transform="translate(1142.000000, 509.000000)">
                <path d="M27,0 C12.0846774,0 0,12.0846774 0,27 C0,41.9153226 12.0846774,54 27,54 C41.9153226,54 54,41.9153226 54,27 C54,12.0846774 41.9153226,0 27,0 Z M43.9675403,19.0295565 L45.5766532,18.3621774 C45.7901758,18.2739304 46.0300124,18.2741371 46.2433826,18.3627521 C46.4567528,18.4513671 46.6261714,18.6211285 46.7143548,18.8346774 C46.8030057,19.048189 46.8031333,19.288186 46.7147095,19.5017916 C46.6262858,19.7153973 46.4565661,19.8850847 46.2429435,19.9734677 L44.6370968,20.6386694 C44.1927525,20.8225615 43.683456,20.6115325 43.4993952,20.1672581 C43.3151267,19.7238145 43.5245407,19.2148897 43.9675403,19.0295565 L43.9675403,19.0295565 Z M33.3613306,9.36290323 L34.027621,7.75379032 C34.2129542,7.31079067 34.721879,7.10137666 35.1653226,7.28564516 C35.609597,7.46970603 35.820626,7.97900253 35.6367339,8.42334677 L34.9693548,10.0324597 C34.785294,10.4767341 34.2759975,10.6877631 33.8316532,10.503871 C33.6176856,10.415297 33.447801,10.2451588 33.3595462,10.0310594 C33.2712915,9.81695994 33.2719336,9.57652821 33.3613306,9.36290323 L33.3613306,9.36290323 Z M27,5.66129032 C27.4810222,5.66129032 27.8709677,6.05123586 27.8709677,6.53225806 L27.8709677,8.27419355 C27.8709677,8.75521575 27.4810222,9.14516129 27,9.14516129 C26.5189778,9.14516129 26.1290323,8.75521575 26.1290323,8.27419355 L26.1290323,6.53225806 C26.1290323,6.05123586 26.5189778,5.66129032 27,5.66129032 Z M18.8346774,7.28564516 C19.048189,7.1969943 19.288186,7.1968667 19.5017916,7.28529046 C19.7153973,7.37371423 19.8850847,7.54343393 19.9734677,7.75705645 L20.6386694,9.36290323 C20.7649131,9.65173122 20.7252483,9.98623049 20.5349572,10.2375239 C20.3446661,10.4888174 20.0334485,10.6176842 19.7212115,10.5744741 C19.4089744,10.5312641 19.1444505,10.3227211 19.0295565,10.0291935 L18.3621774,8.42008065 C18.1805813,7.97634068 18.3917763,7.46927783 18.8346774,7.28564516 Z M11.9126613,11.9115726 C12.2527491,11.5717076 12.8039041,11.5717076 13.1439919,11.9115726 L14.3709677,13.1429032 C14.7086625,13.4826133 14.7086625,14.0312577 14.3709677,14.3709677 C14.0308799,14.7108327 13.4797249,14.7108327 13.1396371,14.3709677 L11.9083065,13.1396371 C11.5715135,12.7990296 11.5729727,12.2503838 11.9115726,11.9115726 L11.9126613,11.9115726 Z M5.66129032,27 C5.66129032,26.5189778 6.05123586,26.1290323 6.53225806,26.1290323 L8.27419355,26.1290323 C8.75521575,26.1290323 9.14516129,26.5189778 9.14516129,27 C9.14516129,27.4810222 8.75521575,27.8709677 8.27419355,27.8709677 L6.53225806,27.8709677 C6.05123586,27.8709677 5.66129032,27.4810222 5.66129032,27 Z M10.0324597,34.9704435 L8.42334677,35.6378226 C8.20982415,35.7260696 7.96998759,35.7258629 7.75661742,35.6372479 C7.54324724,35.5486329 7.37382862,35.3788715 7.28564516,35.1653226 C7.1969943,34.951811 7.1968667,34.711814 7.28529046,34.4982084 C7.37371423,34.2846027 7.54343393,34.1149153 7.75705645,34.0265323 L9.36290323,33.3613306 C9.80724747,33.1774385 10.316544,33.3884675 10.5006048,33.8327419 C10.6848733,34.2761855 10.4754593,34.7851103 10.0324597,34.9704435 L10.0324597,34.9704435 Z M10.503871,20.1639919 C10.4161304,20.378745 10.2463413,20.549621 10.0321525,20.6387301 C9.81796372,20.7278392 9.57707584,20.7278173 9.36290323,20.6386694 L7.75379032,19.972379 C7.31079067,19.7870458 7.10137666,19.278121 7.28564516,18.8346774 C7.46970603,18.390403 7.97900253,18.179374 8.42334677,18.3632661 L10.0324597,19.0306452 C10.4761335,19.2147054 10.6870383,19.7232148 10.503871,20.1672581 L10.503871,20.1639919 Z M20.6386694,44.6370968 L19.972379,46.2462097 C19.8533577,46.5338445 19.5899262,46.7361329 19.2813165,46.7768748 C18.9727067,46.8176168 18.6658041,46.6906226 18.4762156,46.4437297 C18.2866272,46.1968368 18.2431561,45.8675542 18.3621774,45.5799194 L19.0295565,43.9708065 C19.1444505,43.6772789 19.4089744,43.4687359 19.7212115,43.4255259 C20.0334485,43.3823158 20.3446661,43.5111826 20.5349572,43.7624761 C20.7252483,44.0137695 20.7649131,44.3482688 20.6386694,44.6370968 L20.6386694,44.6370968 Z M27.8709677,47.4677419 C27.8709677,47.9487641 27.4810222,48.3387097 27,48.3387097 C26.5189778,48.3387097 26.1290323,47.9487641 26.1290323,47.4677419 L26.1290323,45.7258065 C26.1290323,45.2447843 26.5189778,44.8548387 27,44.8548387 C27.4810222,44.8548387 27.8709677,45.2447843 27.8709677,45.7258065 L27.8709677,47.4677419 Z M35.1653226,46.7143548 C34.951811,46.8030057 34.711814,46.8031333 34.4982084,46.7147095 C34.2846027,46.6262858 34.1149153,46.4565661 34.0265323,46.2429435 L33.3613306,44.6370968 C33.1774385,44.1927525 33.3884675,43.683456 33.8327419,43.4993952 C34.2770862,43.315503 34.7863827,43.5265321 34.9704435,43.9708065 L35.6378226,45.5799194 C35.8194187,46.0236593 35.6082237,46.5307222 35.1653226,46.7143548 Z M42.0873387,42.0884274 C41.7472509,42.4282924 41.1960959,42.4282924 40.8560081,42.0884274 L39.6290323,40.8570968 C39.2913375,40.5173867 39.2913375,39.9687423 39.6290323,39.6290323 C39.9691201,39.2891673 40.5202751,39.2891673 40.8603629,39.6290323 L42.0916935,40.8603629 C42.4284865,41.2009704 42.4270273,41.7496162 42.0884274,42.0884274 L42.0873387,42.0884274 Z M46.7143548,35.1653226 C46.530294,35.609597 46.0209975,35.820626 45.5766532,35.6367339 L43.9675403,34.9693548 C43.5232659,34.785294 43.3122369,34.2759975 43.496129,33.8316532 C43.584703,33.6176856 43.7548412,33.447801 43.9689406,33.3595462 C44.1830401,33.2712915 44.4234718,33.2719336 44.6370968,33.3613306 L46.2462097,34.027621 C46.6892093,34.2129542 46.8986233,34.721879 46.7143548,35.1653226 L46.7143548,35.1653226 Z M47.4677419,27.8709677 L45.7258065,27.8709677 C45.2447843,27.8709677 44.8548387,27.4810222 44.8548387,27 C44.8548387,26.5189778 45.2447843,26.1290323 45.7258065,26.1290323 L47.4677419,26.1290323 C47.9487641,26.1290323 48.3387097,26.5189778 48.3387097,27 C48.3387097,27.4810222 47.9487641,27.8709677 47.4677419,27.8709677 Z" id="形状" fill="#1A86F5" fill-rule="nonzero"></path>
                <g id="路径-7" transform="translate(11.141855, 11.141855)">
                    <mask id="mask-2" fill="white">
                        <use xlink:href="#path-1"></use>
                    </mask>
                    <use id="蒙版" fill="#FE5153" fill-rule="nonzero" xlink:href="#path-1"></use>
                    <polygon fill="#FFFFFF" mask="url(#mask-2)" points="12.5647984 12.5647984 19.4299541 19.5187688 -1.99669355 33.7129839"></polygon>
                </g>
            </g>
        </g>
    </g>
</svg>