<?xml version="1.0" encoding="UTF-8"?>
<svg width="500px" height="371px" viewBox="0 0 500 371" version="1.1" xmlns="http://www.w3.org/2000/svg" xmlns:xlink="http://www.w3.org/1999/xlink">
    <title>主图</title>
    <defs>
        <linearGradient x1="50%" y1="4.13027621%" x2="50%" y2="98.4679751%" id="linearGradient-1">
            <stop stop-color="#176DEE" offset="0%"></stop>
            <stop stop-color="#116BF2" stop-opacity="0.789377611" offset="10.4920312%"></stop>
            <stop stop-color="#0868F9" stop-opacity="0.436595202" offset="34.1765583%"></stop>
            <stop stop-color="#0066FF" stop-opacity="0.153873082" offset="69.0613507%"></stop>
            <stop stop-color="#0066FF" stop-opacity="0" offset="100%"></stop>
        </linearGradient>
        <linearGradient x1="50%" y1="0%" x2="50%" y2="90.6493692%" id="linearGradient-2">
            <stop stop-color="#0066FF" stop-opacity="0.899881003" offset="0%"></stop>
            <stop stop-color="#0066FF" stop-opacity="0.28951877" offset="52.3004705%"></stop>
            <stop stop-color="#2271E7" stop-opacity="0" offset="100%"></stop>
        </linearGradient>
        <linearGradient x1="50%" y1="0%" x2="50%" y2="90.6493692%" id="linearGradient-3">
            <stop stop-color="#0066FF" stop-opacity="0.899881003" offset="0%"></stop>
            <stop stop-color="#0066FF" stop-opacity="0.28951877" offset="52.3004705%"></stop>
            <stop stop-color="#2271E7" stop-opacity="0" offset="100%"></stop>
        </linearGradient>
        <linearGradient x1="8.9125434%" y1="15.8220288%" x2="79.2381635%" y2="55.8216733%" id="linearGradient-4">
            <stop stop-color="#3F6FB7" offset="0%"></stop>
            <stop stop-color="#3F6FB7" stop-opacity="0.274234834" offset="54.252059%"></stop>
            <stop stop-color="#1D76FB" stop-opacity="0" offset="100%"></stop>
        </linearGradient>
        <linearGradient x1="51.7734777%" y1="26.1762548%" x2="46.4240129%" y2="88.1335649%" id="linearGradient-5">
            <stop stop-color="#227AFF" offset="0%"></stop>
            <stop stop-color="#B7D4FF" offset="100%"></stop>
        </linearGradient>
        <linearGradient x1="51.7734777%" y1="26.1762548%" x2="43.9102894%" y2="82.860706%" id="linearGradient-6">
            <stop stop-color="#227AFF" offset="0%"></stop>
            <stop stop-color="#B7D4FF" offset="100%"></stop>
        </linearGradient>
        <linearGradient x1="50%" y1="0.913392035%" x2="51.9796821%" y2="25.2092383%" id="linearGradient-7">
            <stop stop-color="#005EEB" offset="0%"></stop>
            <stop stop-color="#448CF9" offset="69.5639033%"></stop>
            <stop stop-color="#74ACFF" offset="100%"></stop>
        </linearGradient>
        <path d="M60.7881539,0 L60.788,0.01 L61.135282,0.0201470788 C84.9580885,1.34756453 119.376853,68.0421192 121.133782,132.778498 C122.908458,198.168779 90.9358903,255.490208 80.7838313,261.529729 C77.2362854,263.640186 73.6936974,264.769764 70.1560672,264.918463 C69.174778,264.95971 67.9612628,264.982052 66.5155218,264.985489 L65.7039051,264.985489 C64.2218113,264.98216 62.5218596,264.961095 60.6040502,264.922296 C58.6831656,264.961093 56.9830985,264.98216 55.5009155,264.985489 L54.6892988,264.985489 C53.2435577,264.982052 52.0300425,264.95971 51.0487533,264.918463 C47.5111231,264.769764 43.9685351,263.640186 40.4209892,261.529729 C30.2689302,255.490208 -1.70363729,198.168779 0.0710384483,132.778498 C1.84571419,67.3882164 36.9453931,0 60.7881539,0 L60.416,0.01 L60.4166667,0 L60.602,0.005 L60.7881539,0 Z" id="path-8"></path>
        <linearGradient x1="78.6477125%" y1="36.0395816%" x2="9.84580967%" y2="69.8798925%" id="linearGradient-10">
            <stop stop-color="#CFE2FF" offset="0%"></stop>
            <stop stop-color="#DBE9FF" offset="11.5475656%"></stop>
            <stop stop-color="#E2EDFF" offset="24.281397%"></stop>
            <stop stop-color="#E5EFFF" offset="35.7082179%"></stop>
            <stop stop-color="#C5DBFB" offset="51.4609795%"></stop>
            <stop stop-color="#AAC9F8" offset="65.8571902%"></stop>
            <stop stop-color="#6EA7FC" offset="100%"></stop>
        </linearGradient>
        <linearGradient x1="92.7964865%" y1="23.058915%" x2="92.7964865%" y2="80.9710965%" id="linearGradient-11">
            <stop stop-color="#E9F2FF" offset="0%"></stop>
            <stop stop-color="#D8E9FE" offset="22.1654078%"></stop>
            <stop stop-color="#AACEFF" offset="100%"></stop>
        </linearGradient>
        <linearGradient x1="100%" y1="50%" x2="0.977160047%" y2="50%" id="linearGradient-12">
            <stop stop-color="#5F89CA" offset="0%"></stop>
            <stop stop-color="#EFF5FF" offset="21.882798%"></stop>
            <stop stop-color="#FFFFFF" offset="48.5975297%"></stop>
            <stop stop-color="#ECF4FF" offset="68.389246%"></stop>
            <stop stop-color="#77A7F0" offset="100%"></stop>
        </linearGradient>
        <linearGradient x1="96.4781327%" y1="48.6625817%" x2="3.72526071%" y2="49.6890436%" id="linearGradient-13">
            <stop stop-color="#1370FA" offset="0%"></stop>
            <stop stop-color="#3384FB" offset="10.016335%"></stop>
            <stop stop-color="#C7DEFF" offset="38.9374726%"></stop>
            <stop stop-color="#3B88FB" offset="78.1489117%"></stop>
            <stop stop-color="#1370FA" offset="100%"></stop>
        </linearGradient>
        <linearGradient x1="98.9124726%" y1="49.7938453%" x2="48.3737927%" y2="50.7308564%" id="linearGradient-14">
            <stop stop-color="#0056D4" offset="0%"></stop>
            <stop stop-color="#0056D4" stop-opacity="0.228450848" offset="47.0270429%"></stop>
            <stop stop-color="#0056D4" stop-opacity="0" offset="100%"></stop>
        </linearGradient>
        <linearGradient x1="1.82707769%" y1="49.6379493%" x2="47.1612689%" y2="50.3620507%" id="linearGradient-15">
            <stop stop-color="#0056D5" offset="0%"></stop>
            <stop stop-color="#0056D5" stop-opacity="0" offset="100%"></stop>
        </linearGradient>
        <linearGradient x1="98.8061977%" y1="49.991792%" x2="3.72526071%" y2="49.3380653%" id="linearGradient-16">
            <stop stop-color="#1370FA" offset="0%"></stop>
            <stop stop-color="#89B8FD" offset="16.4443493%"></stop>
            <stop stop-color="#B2D1FF" offset="29.2080269%"></stop>
            <stop stop-color="#79AEFD" offset="52.1093436%"></stop>
            <stop stop-color="#1370FA" offset="100%"></stop>
        </linearGradient>
        <filter x="-45.3%" y="-36.1%" width="190.5%" height="172.3%" filterUnits="objectBoundingBox" id="filter-17">
            <feGaussianBlur stdDeviation="10" in="SourceGraphic"></feGaussianBlur>
        </filter>
        <linearGradient x1="57.4565938%" y1="52.3753556%" x2="44.753945%" y2="48.4508932%" id="linearGradient-18">
            <stop stop-color="#5097FF" offset="0%"></stop>
            <stop stop-color="#5097FF" stop-opacity="0.241179628" offset="69.3576704%"></stop>
            <stop stop-color="#5097FF" stop-opacity="0" offset="100%"></stop>
        </linearGradient>
        <linearGradient x1="34.8364707%" y1="34.3624048%" x2="59.2900008%" y2="70.7514839%" id="linearGradient-19">
            <stop stop-color="#065DDF" offset="0%"></stop>
            <stop stop-color="#1370FA" stop-opacity="0" offset="100%"></stop>
        </linearGradient>
        <linearGradient x1="50%" y1="0%" x2="50%" y2="100%" id="linearGradient-20">
            <stop stop-color="#96C0FF" offset="0%"></stop>
            <stop stop-color="#3686FF" offset="100%"></stop>
        </linearGradient>
        <linearGradient x1="50%" y1="0%" x2="50%" y2="96.5896286%" id="linearGradient-21">
            <stop stop-color="#F7FBFF" offset="0%"></stop>
            <stop stop-color="#F7FBFF" offset="100%"></stop>
        </linearGradient>
        <linearGradient x1="39.3558358%" y1="-16.7164742%" x2="68.9399253%" y2="95.6261633%" id="linearGradient-22">
            <stop stop-color="#C6DDFF" offset="0%"></stop>
            <stop stop-color="#267DFF" offset="88.5319161%"></stop>
            <stop stop-color="#0066FF" offset="100%"></stop>
        </linearGradient>
        <linearGradient x1="75.1837377%" y1="22.8802228%" x2="12.5832004%" y2="85.1043033%" id="linearGradient-23">
            <stop stop-color="#F0F6FF" offset="0%"></stop>
            <stop stop-color="#F4F9FF" offset="44.3784366%"></stop>
            <stop stop-color="#DDEBFF" offset="100%"></stop>
        </linearGradient>
        <path d="M83.7811649,129.124264 L83.7811649,135.145262 L90.5495769,129.584299 C90.911565,129.286805 91.3659614,129.124264 91.8346511,129.124264 L95.7018403,129.124264 L83.7811649,138.918274 L83.7811649,143.660881 C83.7811649,145.378032 82.3887242,146.770101 80.6715247,146.770101 L80.2945784,146.770101 L80.2945784,132.233484 C80.2945784,130.516333 81.6866867,129.124264 83.4042187,129.124264 L83.7811649,129.124264 Z M87.0944691,137.980588 L95.7017406,146.770101 L92.4345408,146.770101 C91.8764343,146.770101 91.3409313,146.549723 90.9443733,146.156833 L84.6812154,139.944376 L87.0944691,137.980588 Z M78.2544151,126.356547 C78.2544151,126.356547 78.1357808,126.618555 78.0058117,126.916381 L77.9078863,127.142931 C77.8434212,127.29373 77.7828287,127.439346 77.7395212,127.551506 C77.551048,128.038464 77.3858432,128.683309 77.3858432,128.683309 C75.3262675,129.900206 73.137719,132.035842 73.1809315,135.473801 C73.2145043,138.151572 75.9747879,140.052205 78.5482603,140.854606 L78.5482603,142.985588 C75.4449357,142.985588 69.0873752,140.44576 69.3320246,135.299293 C69.5008858,131.75929 73.1992137,128.055416 78.2544151,126.356547 Z M86.9679998,118.03044 C92.4401518,118.575924 94.5959949,123.411047 94.5959949,123.411047 L97.006196,123.411047 C100.534665,123.411047 103.075161,127.024992 103.075161,127.024992 L99.8790062,127.024992 C99.8790062,127.024992 98.7475457,125.319911 95.3653341,125.141415 C91.7800237,124.951618 88.4919292,127.024992 88.4919292,127.024992 C88.4919292,127.024992 90.2100937,124.875075 93.2898176,123.909468 C92.8427341,123.159586 90.6597772,120.362806 87.0463038,120.362806 C81.553553,120.362806 78.7910483,124.938883 78.7910483,124.938883 C78.7910483,124.938883 77.7994869,125.264298 77.0648738,125.523566 C76.3718113,125.768208 74.0353109,127.024992 74.0353109,127.024992 C76.1384316,121.422148 81.4958479,117.484957 86.9679998,118.03044 Z" id="path-24"></path>
        <filter x="-3.4%" y="-2.3%" width="106.8%" height="108.0%" filterUnits="objectBoundingBox" id="filter-25">
            <feOffset dx="0" dy="0.5" in="SourceAlpha" result="shadowOffsetOuter1"></feOffset>
            <feGaussianBlur stdDeviation="0.3" in="shadowOffsetOuter1" result="shadowBlurOuter1"></feGaussianBlur>
            <feColorMatrix values="0 0 0 0 0.0594139036   0 0 0 0 0.346898094   0 0 0 0 0.778124381  0 0 0 1 0" type="matrix" in="shadowBlurOuter1"></feColorMatrix>
        </filter>
        <linearGradient x1="97.6268036%" y1="50%" x2="10.1543685%" y2="50%" id="linearGradient-26">
            <stop stop-color="#75A1E4" offset="0%"></stop>
            <stop stop-color="#BBD6FF" offset="100%"></stop>
        </linearGradient>
        <linearGradient x1="50.2108576%" y1="100%" x2="49.9020847%" y2="60.5823626%" id="linearGradient-27">
            <stop stop-color="#A3B5F5" offset="0%"></stop>
            <stop stop-color="#BECBF8" offset="17.9272438%"></stop>
            <stop stop-color="#FBFCFF" offset="100%"></stop>
        </linearGradient>
        <linearGradient x1="5.18746835%" y1="65.375712%" x2="70.2736982%" y2="50%" id="linearGradient-28">
            <stop stop-color="#FFF3EA" offset="0%"></stop>
            <stop stop-color="#FFDAC4" offset="100%"></stop>
        </linearGradient>
        <linearGradient x1="50%" y1="0%" x2="50%" y2="100%" id="linearGradient-29">
            <stop stop-color="#0048CA" offset="0%"></stop>
            <stop stop-color="#0052E8" offset="100%"></stop>
        </linearGradient>
        <linearGradient x1="52.1897226%" y1="5.11278018%" x2="50%" y2="100%" id="linearGradient-30">
            <stop stop-color="#0066FF" offset="0%"></stop>
            <stop stop-color="#07ACFF" offset="100%"></stop>
        </linearGradient>
        <linearGradient x1="50%" y1="0%" x2="50%" y2="99.1843484%" id="linearGradient-31">
            <stop stop-color="#FEDC4D" offset="0%"></stop>
            <stop stop-color="#FF9C1B" offset="100%"></stop>
        </linearGradient>
        <path d="M0.577698966,18.3393594 C12.5308561,19.5243964 19.2338383,19.9256766 20.6866457,19.5431997 C22.8658567,18.9694844 35.0301849,12.6691363 41.0008136,7.5482794 C46.9714423,2.4274225 51.7983617,-0.488158507 58.2015792,0.0673375149 C64.6047967,0.622833537 76.2969931,5.2969693 86.6535082,15.8395808 C86.6535082,15.8395808 75.2484303,30.4265237 72.5946144,30.7901489 C69.9407986,31.1537742 68.1766273,28.4656359 62.9054388,26.6573095 C59.3913132,25.4517585 55.4681553,24.5417567 51.1359652,23.927304 L35.5528995,37.089941 C34.9947832,37.5613683 34.3182146,37.8709402 33.59661,37.9850642 L10.4616703,41.6439272 L10.4616703,41.6439272 L8.93204329,35.8971843 L29.9898667,31.4255395 C36.9978451,24.8880219 40.3695833,21.6192631 40.1050811,21.6192631 C39.7083279,21.6192631 29.4575798,26.8788866 24.5951823,26.8788866 C21.3535839,26.8788866 13.1551898,25.5096263 0,22.7711057 L0.577698966,18.3393594 Z" id="path-32"></path>
        <linearGradient x1="49.7627152%" y1="45.2117287%" x2="41.5500765%" y2="56.9084722%" id="linearGradient-34">
            <stop stop-color="#FFA300" offset="0%"></stop>
            <stop stop-color="#FEB32D" offset="100%"></stop>
        </linearGradient>
        <linearGradient x1="86.7419714%" y1="39.7545096%" x2="8.62195399%" y2="58.9616433%" id="linearGradient-35">
            <stop stop-color="#FF9000" offset="0%"></stop>
            <stop stop-color="#FEB52E" offset="100%"></stop>
        </linearGradient>
        <linearGradient x1="91.1210031%" y1="11.1465856%" x2="5.77690795%" y2="107.491358%" id="linearGradient-36">
            <stop stop-color="#CCE3FF" offset="0%"></stop>
            <stop stop-color="#2C80FF" offset="100%"></stop>
            <stop stop-color="#2C80FF" offset="100%"></stop>
        </linearGradient>
    </defs>
    <g id="页面-1" stroke="none" stroke-width="1" fill="none" fill-rule="evenodd">
        <g id="主图" transform="translate(0.000000, 0.109814)">
            <path d="M500,370 C459.814267,318.542563 356.686181,270.5969 247.916667,270.5969 C140.116522,270.5969 43.75,318.507752 0,368.265408" id="路径" fill="url(#linearGradient-1)" opacity="0.239999995"></path>
            <ellipse id="椭圆形备份" fill="url(#linearGradient-2)" opacity="0.1" cx="163.5" cy="331.845168" rx="14.5833333" ry="14.5829209"></ellipse>
            <ellipse id="椭圆形备份" fill="url(#linearGradient-3)" opacity="0.1" cx="354.958333" cy="336.220044" rx="32.2916667" ry="32.2907534"></ellipse>
            <path d="M180.208333,51.853087 C222.204986,51.853087 256.25,85.8971379 256.25,127.892603 C256.25,169.888068 222.204986,203.932119 180.208333,203.932119 C138.21168,203.932119 104.166667,169.888068 104.166667,127.892603 C104.166667,85.8971379 138.21168,51.853087 180.208333,51.853087 Z M180.208333,53.8530304 C139.31625,53.8530304 106.166667,87.0016762 106.166667,127.892603 C106.166667,168.78353 139.31625,201.932176 180.208333,201.932176 C221.100417,201.932176 254.25,168.78353 254.25,127.892603 C254.25,87.0016762 221.100417,53.8530304 180.208333,53.8530304 Z" id="椭圆形" fill="url(#linearGradient-4)" fill-rule="nonzero" opacity="0.26"></path>
            <g id="编组-11" transform="translate(83.645833, 0.000000)">
                <g id="编组备份" transform="translate(85.528839, 0.000000)">
                    <path d="M26.1385283,163.247476 C13.5676823,169.40438 5.50320871,175.721908 1.94510753,182.20006 C-1.61299366,188.678211 -0.289584231,220.807023 5.91533581,278.586494 C24.7681599,254.17393 36.9101606,235.717825 42.3413379,223.218179 C47.7725151,210.718532 42.3715786,190.728298 26.1385283,163.247476 Z" id="路径-48" fill="url(#linearGradient-5)"></path>
                    <path d="M150.826028,163.247476 C138.255182,169.40438 130.190709,175.721908 126.632608,182.20006 C123.074506,188.678211 124.397916,220.807023 130.602836,278.586494 C149.45566,254.17393 161.597661,235.717825 167.028838,223.218179 C172.460015,210.718532 167.059079,190.728298 150.826028,163.247476 Z" id="路径-48备份" fill="url(#linearGradient-6)" transform="translate(146.879358, 220.916985) scale(-1, 1) translate(-146.879358, -220.916985) "></path>
                    <g id="路径-49-+-路径-49-+-路径-52蒙版" transform="translate(23.474674, 0.000000)">
                        <mask id="mask-9" fill="white">
                            <use xlink:href="#path-8"></use>
                        </mask>
                        <use id="蒙版" fill="url(#linearGradient-7)" xlink:href="#path-8"></use>
                        <path d="M6.68495389,76.0910884 L114.621127,76.0910884 C127.917958,107.620213 131.828642,133.042936 126.353179,152.359258 C120.877717,171.67558 112.231194,201.631399 100.41361,242.226714 L21.86362,239.720211 C6.48218731,208.561948 -1.94717036,180.477307 -3.42445298,155.466288 C-4.9017356,130.455269 -1.53193331,103.996869 6.68495389,76.0910884 Z" id="路径" fill="url(#linearGradient-10)" mask="url(#mask-9)"></path>
                        <path d="M27.8667413,248.036912 L94.7253792,248.036912 C85.7444756,260.759616 79.1171805,267.120969 74.8434941,267.120969 C70.5698077,267.120969 59.8028591,266.409299 42.5426481,264.985958 L27.8667413,248.036912 Z" id="路径-2" fill="url(#linearGradient-11)" mask="url(#mask-9)"></path>
                        <path d="M10.841319,61.9486394 C26.6935378,66.8462451 42.7174828,69.2950479 58.9131539,69.2950479 C75.1088249,69.2950479 92.0076878,66.8462451 109.609742,61.9486394 L114.621127,75.1770188 C96.6667969,80.4092202 78.0974724,83.0253209 58.9131539,83.0253209 C39.7288353,83.0253209 22.3194353,80.4092202 6.68495389,75.1770188 L10.841319,61.9486394 Z" id="路径-49" fill="url(#linearGradient-12)" mask="url(#mask-9)"></path>
                        <path d="M10.841319,66.9668795 C26.6935378,71.8644852 42.7174828,74.313288 58.9131539,74.313288 C75.1088249,74.313288 92.0076878,71.8644852 109.609742,66.9668795 L114.621127,78.9035088 C96.6667969,84.1357102 78.0974724,86.7518109 58.9131539,86.7518109 C39.7288353,86.7518109 22.3194353,84.1357102 6.68495389,78.9035088 L10.841319,66.9668795 Z" id="路径-49" fill="url(#linearGradient-13)" mask="url(#mask-9)"></path>
                        <path d="M114.425277,77.5344838 L114.816978,78.8785329 C96.7985996,84.1293989 78.1633268,86.7547906 58.9131539,86.7547906 C39.6559897,86.7547906 22.1718498,84.1274588 6.46279767,78.8703017 L6.90711011,77.5427149 C22.4670208,82.7499606 39.8016809,85.3548302 58.9131539,85.3548302 C78.031618,85.3548302 96.5349942,82.7480205 114.425277,77.5344838 Z" id="路径" fill="url(#linearGradient-14)" fill-rule="nonzero" mask="url(#mask-9)"></path>
                        <path d="M114.425277,77.5344838 L114.816978,78.8785329 C96.7985996,84.1293989 78.1633268,86.7547906 58.9131539,86.7547906 C39.6559897,86.7547906 22.1718498,84.1274588 6.46279767,78.8703017 L6.90711011,77.5427149 C22.4670208,82.7499606 39.8016809,85.3548302 58.9131539,85.3548302 C78.031618,85.3548302 96.5349942,82.7480205 114.425277,77.5344838 Z" id="路径" fill="url(#linearGradient-15)" fill-rule="nonzero" mask="url(#mask-9)"></path>
                        <path d="M18.0309598,230.910194 C32.6790796,233.416677 46.8076485,234.669918 60.4166667,234.669918 C74.0256848,234.669918 88.6079992,233.416677 104.16361,230.910194 C103.295108,235.200429 102.147231,238.647336 100.719978,241.250914 C99.2927259,243.854491 96.5842104,247.281853 92.5944318,251.533 C82.5590232,253.141305 71.9958563,253.945458 60.9049312,253.945458 C49.814006,253.945458 39.2675896,252.883234 29.2656819,250.758786 C27.6535318,248.999476 25.8927176,246.668987 23.9832394,243.76732 C22.0737611,240.865654 20.0896679,236.579945 18.0309598,230.910194 Z" id="路径-52" fill="url(#linearGradient-16)" mask="url(#mask-9)"></path>
                        <path d="M176.284093,-42.9987839 C182.367181,-42.9987839 213.038719,8.47835386 214.41361,32.474993 C214.936796,41.6064154 193.812115,34.1523958 191.018897,36.8680845 C186.252101,41.5025708 152.047694,43.6151325 148.538154,23.8871973 C144.58688,1.67617582 171.836546,-42.9987839 176.284093,-42.9987839 Z" id="路径-3" fill="#D4E1FF" opacity="0.300000012" filter="url(#filter-17)" mask="url(#mask-9)"></path>
                        <path d="M62.4933257,176.456831 C52.3762949,190.436598 43.8857633,199.515158 37.021731,203.692511 C37.021731,203.692511 36.6018561,213.630223 35.7621064,233.505647 L59.5888268,235.045738 C55.986571,224.223614 54.5122914,213.772538 55.1659878,203.692511 C55.8196842,193.612484 58.2621301,184.533924 62.4933257,176.456831 Z" id="路径-9" fill="url(#linearGradient-18)" mask="url(#mask-9)"></path>
                        <path d="M97.8898534,65.3178258 C103.449936,67.8927911 108.810154,72.2477459 113.970507,78.3826902 C113.970507,78.3826902 117.051463,78.900253 123.213375,79.9353786 C122.288298,73.2681393 121.104909,69.0954831 119.663207,67.41741 C116.16989,63.3513538 109.673138,63.9730957 107.060941,63.6327562 C104.525757,63.3024505 98.3841392,60.4339193 95.367291,59.9973359 C93.8538836,59.778323 93.7391102,61.4699594 93.7856087,61.8747442 C93.9949317,63.6969679 95.3630133,64.8446618 97.8898534,65.3178258 Z" id="路径-11" fill="url(#linearGradient-19)" mask="url(#mask-9)"></path>
                    </g>
                    <ellipse id="椭圆形" fill="url(#linearGradient-20)" cx="84.262828" cy="134.602834" rx="30" ry="29.9991515"></ellipse>
                    <ellipse id="椭圆形" fill="url(#linearGradient-21)" cx="84.262828" cy="134.602834" rx="28.125" ry="28.1242046"></ellipse>
                    <ellipse id="椭圆形" fill="url(#linearGradient-22)" cx="84.262828" cy="134.602834" rx="26.25" ry="26.2492576"></ellipse>
                    <g id="形状结合">
                        <use fill="black" fill-opacity="1" filter="url(#filter-25)" xlink:href="#path-24"></use>
                        <use fill="url(#linearGradient-23)" fill-rule="evenodd" xlink:href="#path-24"></use>
                    </g>
                    <path d="M83.3743562,180.320208 C83.6789575,177.602445 84.5435054,176.314652 85.9679998,176.456831 C88.1047416,176.670099 88.8753342,180.908546 89.2450899,189.951533 C89.6148455,198.994521 90.3398695,234.494871 89.7924797,250.128694 C89.2450899,265.762518 86.1811175,305.396556 83.6387553,308.384391 C81.9438471,310.37628 80.4811166,275.357533 79.2505638,203.32815 L83.3743562,180.320208 Z" id="路径-50" fill="url(#linearGradient-26)"></path>
                    <path d="M81.9694367,312.431075 C84.3954973,312.431075 84.2245721,303.078226 83.3062,275.772333 C82.387828,248.466439 80.1404311,204.651438 81.3536401,200.354717 C82.5668491,196.057996 86.0237468,179.950313 86.175892,178.974943 C86.3280372,177.999573 86.3280372,176.712382 85.5400803,176.494093 C84.7521234,176.275804 84.2825379,177.005588 83.4214834,178.974943 C81.534982,183.289643 79.2381468,193.832918 77.820223,200.11987 C76.4022992,206.406823 79.2505638,267.140069 79.2505638,275.772333 C79.2505638,277.752823 79.5835651,286.942214 79.6366171,290.391754 C79.8148004,301.977551 80.0999844,312.431075 81.9694367,312.431075 Z" id="路径-51" fill="url(#linearGradient-27)"></path>
                </g>
                <g id="编组-10备份" transform="translate(202.857396, 30.695071)">
                    <polygon id="路径-27" fill="#FFDAC4" points="102.978059 101.100666 107.382118 104.325455 109.03919 100.025145 105.61319 98.414003"></polygon>
                    <path d="M97.2064709,121.416726 C97.2064709,121.629958 98.093796,122.976048 99.8684461,125.454997 L102.420365,122.462217 L100.748392,119.146194 C98.3871114,120.44665 97.2064709,121.203493 97.2064709,121.416726 Z" id="路径-24" fill="#FFDAC4"></path>
                    <path d="M39.1471127,14.5191434 C43.3390794,18.0241702 46.0931835,19.6718673 47.4094252,19.4622348 C49.3837878,19.1477859 49.6978877,17.3865102 50.4951935,17.3865102 C51.0267307,17.3865102 51.5420447,17.7647315 52.0411355,18.521174 L58.8075432,13.5895666 L53.3662047,10.4245062 L41.3500527,10.4245062 L39.1471127,14.5191434 Z" id="路径-57" fill="#FFDAC4"></path>
                    <path d="M35.1084211,15.4119709 C33.623782,15.2518543 32.0605737,13.9431102 32.2099156,10.8173324 C32.3592575,7.6915547 36.242597,6.96317248 37.7636638,5.42447665 C39.2847305,3.88578082 40.0732973,0.289895297 44.4384898,0.00663217148 C48.8036824,-0.276630954 53.7728683,8.59821616 53.7728683,10.4504153 C53.7728683,12.3026145 50.2577334,14.2168433 48.7537317,14.0070137 C47.24973,13.7971841 44.2587202,11.4160462 42.9921259,12.0982264 C41.7255317,12.7804066 44.7789898,14.3983563 43.4003964,14.9940106 C42.021803,15.589665 39.8465882,14.38848 38.233202,14.8119099 C36.6198158,15.2353399 36.5930601,15.5720875 35.1084211,15.4119709 Z" id="路径-56" fill="#000000"></path>
                    <path d="M11.1220893,30.5585394 C9.54881199,29.4464756 8.46049786,28.7565017 7.85714695,28.4886178 C6.95212057,28.086792 5.9585746,27.1231133 5.29432833,26.6580716 C4.63008206,26.1930299 3.35680603,26.6167906 4.52213095,27.6649722 C5.68745587,28.7131538 5.64576141,29.0108841 5.29432833,29.0108841 C4.94289525,29.0108841 0.956181384,28.9482731 0.262655383,29.7810131 C-0.430870617,30.6137532 0.0117938522,33.7071671 4.52213095,33.8814566 C7.52902235,33.9976496 9.60543446,34.1041004 10.7513673,34.200809 L11.1220893,30.5585394 Z" id="路径-62" fill="url(#linearGradient-28)"></path>
                    <path d="M83.8877114,44.7117105 C75.5971677,60.643025 70.9941709,69.6121997 70.078721,71.6192347 C68.705546,74.6297871 68.705546,78.0438418 70.7678175,80.0557632 C72.1426652,81.3970441 82.8794123,89.0219558 102.978059,102.930498 L106.730542,97.5018785 L90.7124769,84.3934201 L83.8877114,44.7117105 Z" id="路径-60" fill="url(#linearGradient-29)"></path>
                    <path d="M81.2336758,41.6755184 C82.7317472,43.6185689 83.480783,45.1874645 83.480783,46.3822053 C83.480783,48.1743165 79.3528758,73.7559338 79.3528758,78.3713664 C79.3528758,81.4483214 85.1406202,96.1452716 96.716109,122.462217 L102.099221,119.68693 C94.6227904,96.1534159 90.8845751,82.3815615 90.8845751,78.3713664 C90.8845751,74.3611712 94.4949079,65.0246569 101.715574,50.3618233 C105.058886,46.6576228 106.730542,42.7621887 106.730542,38.6755208 C106.730542,34.588853 103.289828,30.7867741 96.4083996,27.2692842 L81.2336758,41.6755184 Z" id="路径-59" fill="url(#linearGradient-30)"></path>
                    <path d="M99.0040218,125.30468 C102.404583,133.517064 104.195251,137.820823 104.376026,138.215957 C104.647187,138.808658 105.825524,138.950084 105.93939,137.759984 C106.053256,136.569884 106.952096,123.64308 106.952096,122.690552 C106.952096,121.738024 106.406272,120.824302 105.210972,120.824302 C104.414105,120.824302 103.412136,120.824302 102.205063,120.824302 L99.0040218,125.30468 Z" id="路径-61" fill="#001D43"></path>
                    <path d="M106.421188,104.020776 C109.514863,110.809513 111.152089,114.401449 111.332864,114.796584 C111.604028,115.389286 112.528672,115.704974 112.642534,114.514873 C112.756396,113.324773 113.775308,102.29812 113.775308,101.345591 C113.775308,100.393063 113.229479,99.4793268 112.034179,99.4793268 C111.237312,99.4793268 110.235343,99.4793268 109.028271,99.4793268 L106.421188,104.020776 Z" id="路径-61备份" fill="#001D43" transform="translate(110.098248, 107.401833) rotate(-6.000000) translate(-110.098248, -107.401833) "></path>
                    <g id="路径-6" transform="translate(9.754891, 11.429703)">
                        <mask id="mask-33" fill="white">
                            <use xlink:href="#path-32"></use>
                        </mask>
                        <use id="蒙版" fill="url(#linearGradient-31)" xlink:href="#path-32"></use>
                        <path d="M85.7849637,18.1034644 C83.4160822,20.1403046 80.6485346,21.7424407 77.482321,22.9098727 C72.7330007,24.6610207 70.6223277,25.9621662 65.7265292,25.2759404 C60.8307306,24.5897147 52.6756436,18.1034644 44.017977,18.1034644 C35.3603103,18.1034644 34.4046147,23.4739588 26.4920822,25.9621662 C21.2170605,27.6209712 18.4515413,30.2588433 18.1955245,33.8757826 L19.5268798,39.7452209 L69.4554073,33.1184284 C73.9922092,30.8102446 76.6678471,28.9159239 77.482321,27.4354665 C78.296795,25.955009 81.0643425,22.8443416 85.7849637,18.1034644 Z" fill="url(#linearGradient-34)" mask="url(#mask-33)"></path>
                        <polygon id="路径-10" fill="url(#linearGradient-35)" mask="url(#mask-33)" points="40.1050811 21.6192631 51.1359652 23.927304 36.53613 37.7707326 10.6026504 42.3827121 8.89426931 35.5767336 31.9426293 28.0377798"></polygon>
                    </g>
                </g>
                <g id="编组-2备份-2" transform="translate(0.000000, 37.626411)">
                    <ellipse id="椭圆形" fill="url(#linearGradient-36)" cx="34.375" cy="34.3740278" rx="34.375" ry="34.3740278"></ellipse>
                    <path d="M32.4445185,11.7184186 L36.3054815,11.7184186 C38.5146205,11.7184186 40.3054815,13.5092796 40.3054815,15.7184186 C40.3054815,15.8207965 40.301551,15.9231368 40.2936987,16.0252132 L38.4943256,39.4164028 C38.3740923,40.9793916 37.070769,42.1863068 35.5031626,42.1863068 L33.2468374,42.1863068 C31.679231,42.1863068 30.3759077,40.9793916 30.2556744,39.4164028 L28.4563013,16.0252132 C28.2868633,13.8225816 29.9350923,11.8996393 32.1377239,11.7302013 C32.2398003,11.722349 32.3421406,11.7184186 32.4445185,11.7184186 Z" id="矩形" fill="#FFFFFF"></path>
                    <ellipse id="椭圆形" fill="#FFFFFF" cx="34.375" cy="52.3422696" rx="5.46875" ry="5.46859533"></ellipse>
                </g>
            </g>
        </g>
    </g>
</svg>