<?xml version="1.0" encoding="UTF-8"?>
<svg width="638px" height="494px" viewBox="0 0 638 494" version="1.1" xmlns="http://www.w3.org/2000/svg" xmlns:xlink="http://www.w3.org/1999/xlink">
    <title>右下</title>
    <defs>
        <linearGradient x1="46.2223458%" y1="24.3501382%" x2="35.764746%" y2="63.7519316%" id="linearGradient-1">
            <stop stop-color="#F3E2FE" offset="0.0480598503%"></stop>
            <stop stop-color="#F3E2FE" stop-opacity="0.575294335" offset="100%"></stop>
        </linearGradient>
        <filter x="-22.9%" y="-27.3%" width="145.9%" height="154.5%" filterUnits="objectBoundingBox" id="filter-2">
            <feGaussianBlur stdDeviation="50" in="SourceGraphic"></feGaussianBlur>
        </filter>
        <linearGradient x1="46.5635611%" y1="47.4685923%" x2="50%" y2="63.8769614%" id="linearGradient-3">
            <stop stop-color="#DFE0FF" offset="0%"></stop>
            <stop stop-color="#DFE0FF" stop-opacity="0.0195039336" offset="100%"></stop>
        </linearGradient>
        <filter x="-40.4%" y="-76.7%" width="180.8%" height="253.5%" filterUnits="objectBoundingBox" id="filter-4">
            <feGaussianBlur stdDeviation="50" in="SourceGraphic"></feGaussianBlur>
        </filter>
    </defs>
    <g id="页面-1" stroke="none" stroke-width="1" fill="none" fill-rule="evenodd">
        <g id="异常页-浏览器版本不兼容" transform="translate(-802.000000, -406.000000)">
            <g id="编组-2" transform="translate(-163.161954, -229.000000)">
                <g id="编组" transform="translate(964.829714, 635.294026)">
                    <path d="M722.213369,691.970583 C782.2779,656.603518 392.826228,145.503409 392.826228,145.503409 C392.826228,145.503409 47.2073043,178.781288 76.5972302,286.367066 C93.6419542,348.761571 235.756447,295.499496 303.483982,348.228415 C371.211517,400.957333 649.975197,734.505704 722.213369,691.970583 Z" id="椭圆形备份" fill="url(#linearGradient-1)" filter="url(#filter-2)" transform="translate(401.666746, 420.605311) rotate(120.000000) translate(-401.666746, -420.605311) "></path>
                    <path d="M605.162462,393.299906 C645.633729,393.299906 748.658047,391.870222 801.091269,362.26771 C845.206307,337.36144 837.29777,230.320866 829.039332,209.091796 C818.29775,181.479575 716.383456,211.721052 637.776624,224.171151 C511.398057,244.187549 451.171377,232.6945 466.857149,287.717586 C482.542921,342.740671 493.558692,393.299906 605.162462,393.299906 Z" id="椭圆形备份" fill="url(#linearGradient-3)" filter="url(#filter-4)" transform="translate(649.946405, 295.558486) rotate(99.000000) translate(-649.946405, -295.558486) "></path>
                </g>
            </g>
        </g>
    </g>
</svg>